# xmcd CD database file
#
# Track frame offsets:
#	150
#	22880
#	41472
#	65412
#	84810
#	109702
#	128867
#	146625
#	167065
#	190230
#	211412
#	229070
#	247917
#	268307
#	287842
#
# Disc length: 4068 seconds
#
# Revision: 0
# Processed by: cddbd v1.5.1PL0 Copyright (c) Steve Scherf et al.
# Submitted via: CDex 1.51
#
DISCID=d00fe20f
DTITLE=Kenny G - At Last...The Duets Album
DYEAR=2005
DGENRE=Jazz
TTITLE0=(Everything I Do) I Do It For You. Featuring LeAnn Rimes
TTITLE1=At Last. Featuring Arturo Sandoval
TTITLE2=I Believe I Can Fly. Featuring Yolanda Adams
TTITLE3=Careless Whisper. Featuring Brian McKnight and Earl Klugh
TTITLE4=Beautiful. Featuring Chaka Khan
TTITLE5=Pick Up The Pieces. Featuring David Sanborn
TTITLE6=Baby Come To Me. Featuring Daryl Hall
TTITLE7=Misty. Featuring Gladys Knight
TTITLE8=Don't Know Why. Featuring David Benoit
TTITLE9=The Way You Move. Featuring Earth Wind and Fire
TTITLE10=Sorry Seems To Be The Hardest Word. Featuring Richard Marx
TTITLE11=Alfie. Featuring Burt Bacharach
TTITLE12=The Music That Makes Me Dance. Featuring Barbara Streisand
TTITLE13=The One And Only. Featuring Leehom Wang
TTITLE14=Januari. Featuring Glenn Fredly
EXTD=YEAR: 2005
EXTT0=
EXTT1=
EXTT2=
EXTT3=
EXTT4=
EXTT5=
EXTT6=
EXTT7=
EXTT8=
EXTT9=
EXTT10=
EXTT11=
EXTT12=
EXTT13=
EXTT14=
PLAYORDER=
